<?xml version="1.0" encoding="iso-8859-1"?>
<!-- Generator: Adobe Illustrator 16.0.0, SVG Export Plug-In . SVG Version: 6.00 Build 0)  -->
<!DOCTYPE svg PUBLIC "-//W3C//DTD SVG 1.1//EN" "http://www.w3.org/Graphics/SVG/1.1/DTD/svg11.dtd">
<svg version="1.1" id="Layer_1" xmlns="http://www.w3.org/2000/svg" xmlns:xlink="http://www.w3.org/1999/xlink" x="0px" y="0px"
	 width="260px" height="80px" viewBox="0 0 260 80" style="enable-background:new 0 0 260 80;" xml:space="preserve">
<line style="fill:#FFFFFF;" x1="97" y1="46" x2="98" y2="46"/>
<g>
	<path style="fill:#FFFFFF;" d="M63.896,4.779c-13.189,0-24.675,7.416-30.518,18.294c-1.6,2.98-2.775,6.221-3.446,9.642
		c-0.424,2.162-0.653,4.394-0.653,6.679c0,19.087,15.528,34.615,34.616,34.615c6.577,0,12.728-1.847,17.968-5.047
		c0,0-2.362-6.408-6.972-5.449c-3.345,1.553-7.075,2.398-10.996,2.398c-14.175,0-25.789-11.181-26.484-25.186
		c5.478,4.833,12.179,9.02,19.634,12.187c8.292,3.523,16.87,5.52,24.956,5.827c0.737,0.028,1.47,0.048,2.197,0.048
		c3.129,0,6.096-0.268,8.86-0.784c1.882-2.937,3.332-6.17,4.26-9.617c0.772-2.869,1.192-5.883,1.192-8.992
		C98.511,20.307,82.981,4.779,63.896,4.779z M84.199,50.69c-7.638,0-15.933-1.808-23.987-5.231
		c-8.635-3.669-16.077-8.804-21.389-14.684c3.586-10.403,13.467-17.898,25.072-17.898c14.621,0,26.517,11.895,26.517,26.518
		c0,3.976-0.886,7.749-2.461,11.138C86.742,50.635,85.492,50.69,84.199,50.69z"/>
</g>
<path style="fill:#FFFFFF;" d="M105.331,37.921h5.521v2.21c1.065-1.114,1.975-1.865,2.728-2.259
	c0.802-0.409,1.807-0.613,3.018-0.613c2.699,0,4.84,1.178,6.412,3.537c1.735-2.359,4.082-3.537,7.044-3.537
	c5.384,0,8.079,3.265,8.079,9.796v14.781h-5.549V48.553c0-2.292-0.277-3.912-0.834-4.861c-0.572-0.966-1.519-1.447-2.828-1.447
	c-1.521,0-2.629,0.571-3.324,1.718s-1.045,2.987-1.045,5.524v12.35h-5.549V48.627c0-4.257-1.228-6.383-3.683-6.383
	c-1.554,0-2.688,0.58-3.398,1.741c-0.712,1.163-1.071,2.996-1.071,5.501v12.35h-5.521V37.921z"/>
<path style="fill:#FFFFFF;" d="M144.271,27.979c0-0.967,0.35-1.802,1.053-2.506c0.705-0.704,1.549-1.054,2.531-1.054
	c1,0,1.85,0.351,2.555,1.054c0.703,0.688,1.053,1.53,1.053,2.529s-0.35,1.851-1.053,2.554c-0.688,0.704-1.533,1.055-2.531,1.055
	s-1.85-0.351-2.555-1.055C144.621,29.853,144.271,28.993,144.271,27.979z M150.627,37.921v23.915h-5.521V37.921H150.627z"/>
<path style="fill:#FFFFFF;" d="M180.758,61.271c0,1.128-0.039,2.125-0.113,2.981c-0.072,0.862-0.176,1.617-0.309,2.272
	c-0.391,1.802-1.162,3.348-2.307,4.642c-2.16,2.488-5.129,3.731-8.912,3.731c-3.189,0-5.82-0.862-7.883-2.592
	c-2.129-1.773-3.355-4.227-3.682-7.353h5.549c0.213,1.179,0.566,2.089,1.059,2.726c1.145,1.489,2.814,2.234,5.008,2.234
	c4.045,0,6.062-2.472,6.062-7.414v-3.34c-2.193,2.242-4.719,3.364-7.584,3.364c-3.258,0-5.926-1.179-8.004-3.537
	c-2.096-2.39-3.145-5.377-3.145-8.961c0-3.487,0.973-6.448,2.92-8.889c2.096-2.585,4.861-3.879,8.299-3.879
	c3.012,0,5.516,1.121,7.514,3.363v-2.701h5.527V61.271z M175.455,49.941c0-2.32-0.623-4.176-1.867-5.565
	c-1.26-1.423-2.875-2.132-4.842-2.132c-2.094,0-3.746,0.773-4.957,2.33c-1.098,1.387-1.645,3.185-1.645,5.39
	c0,2.175,0.547,3.956,1.645,5.347c1.193,1.516,2.848,2.277,4.957,2.277c2.113,0,3.783-0.767,5.01-2.306
	C174.887,53.896,175.455,52.113,175.455,49.941z"/>
<path style="fill:#FFFFFF;" d="M187.73,37.921h5.521v2.137c1.014-1.064,1.916-1.792,2.701-2.186c0.801-0.409,1.75-0.613,2.848-0.613
	c1.459,0,2.979,0.476,4.566,1.423l-2.525,5.06c-1.049-0.754-2.074-1.131-3.07-1.131c-3.014,0-4.52,2.277-4.52,6.825v12.4h-5.521
	V37.921z"/>
<path style="fill:#FFFFFF;" d="M204.965,49.708c0-3.455,1.234-6.393,3.705-8.815c2.473-2.424,5.486-3.634,9.037-3.634
	c3.568,0,6.598,1.22,9.084,3.659c2.457,2.438,3.684,5.433,3.684,8.984c0,3.585-1.234,6.59-3.705,9.012
	c-2.488,2.406-5.543,3.61-9.16,3.61c-3.586,0-6.586-1.229-9.008-3.684C206.178,56.419,204.965,53.373,204.965,49.708z
	 M210.613,49.806c0,2.39,0.639,4.278,1.916,5.672c1.309,1.408,3.035,2.11,5.178,2.11c2.16,0,3.891-0.695,5.184-2.088
	c1.293-1.389,1.938-3.246,1.938-5.571c0-2.324-0.645-4.184-1.938-5.574c-1.311-1.408-3.039-2.11-5.184-2.11
	c-2.111,0-3.82,0.702-5.131,2.11C211.27,45.762,210.613,47.578,210.613,49.806z"/>
</svg>
